<?xml version="1.0" encoding="UTF-8" standalone="no"?>
<!DOCTYPE svg PUBLIC "-//W3C//DTD SVG 1.1//EN" "http://www.w3.org/Graphics/SVG/1.1/DTD/svg11.dtd">
<svg width="100%" height="100%" viewBox="0 0 978 978" version="1.1" xmlns="http://www.w3.org/2000/svg" xmlns:xlink="http://www.w3.org/1999/xlink" xml:space="preserve" xmlns:serif="http://www.serif.com/" style="fill-rule:evenodd;clip-rule:evenodd;stroke-linejoin:round;stroke-miterlimit:2;">
    <g transform="matrix(1,0,0,1,-640.505536,-1753.937008)">
        <g transform="matrix(3.479065,0,0,3.479065,-4010.290738,-1296.905436)">
            <path d="M1439.144,903.435C1445.042,887.496 1460.24,876.915 1477.235,876.915C1494.231,876.915 1509.429,887.496 1515.327,903.435L1535.807,958.783L1591.155,979.263C1607.094,985.161 1617.676,1000.36 1617.676,1017.355C1617.676,1034.35 1607.094,1049.548 1591.155,1055.446L1535.807,1075.927L1515.327,1131.275C1509.429,1147.214 1494.231,1157.795 1477.235,1157.795C1460.24,1157.795 1445.042,1147.214 1439.144,1131.275L1418.663,1075.927L1363.316,1055.446C1347.377,1049.548 1336.795,1034.35 1336.795,1017.355C1336.795,1000.36 1347.377,985.161 1363.316,979.263L1418.663,958.783L1439.144,903.435ZM1477.235,958.616C1444.817,958.616 1418.497,984.936 1418.497,1017.355C1418.497,1049.774 1444.817,1076.093 1477.235,1076.093C1509.654,1076.093 1535.974,1049.774 1535.974,1017.355C1535.974,984.936 1509.654,958.616 1477.235,958.616ZM1477.235,987.986C1493.445,987.986 1506.605,1001.145 1506.605,1017.355C1506.605,1033.564 1493.445,1046.724 1477.235,1046.724C1461.026,1046.724 1447.866,1033.564 1447.866,1017.355C1447.866,1001.145 1461.026,987.986 1477.235,987.986Z" style="fill:white;"/>
        </g>
    </g>
</svg>
